<?xml version="1.0" encoding="UTF-8"?>
<svg version="1.1" xmlns="http://www.w3.org/2000/svg" width="3240" height="862">
<path d="M0 0 C1069.2 0 2138.4 0 3240 0 C3240 284.46 3240 568.92 3240 862 C2170.8 862 1101.6 862 0 862 C0 577.54 0 293.08 0 0 Z " fill="#FEFEFE" transform="translate(0,0)"/>
<path d="M0 0 C1.77206191 0.00025118 3.5441287 0.00581561 5.31616211 0.01586914 C6.14079956 0.01687622 6.96543701 0.0178833 7.81506348 0.0189209 C10.90789166 0.02416947 14.0007001 0.03813062 17.09350586 0.05102539 C24.00288086 0.07165039 30.91225586 0.09227539 38.03100586 0.11352539 C38.36100586 25.19352539 38.69100586 50.27352539 39.03100586 76.11352539 C45.04152046 74.11002052 45.95825049 73.37571125 50.03100586 69.11352539 C60.65527934 59.56079881 73.25916276 54.31381052 87.03100586 51.11352539 C87.77527832 50.93619873 88.51955078 50.75887207 89.28637695 50.57617188 C95.61795866 49.17061328 101.68003268 48.76369673 108.15600586 48.80102539 C109.15865479 48.80521484 110.16130371 48.8094043 111.19433594 48.8137207 C137.56459537 49.21036114 160.59966213 59.6524867 179.78100586 77.42602539 C199.84992427 98.73376592 207.19341656 126.57872846 207.27124023 155.08813477 C207.28089535 157.21419185 207.3119975 159.33925816 207.34350586 161.46508789 C207.4468568 174.66213418 205.63979402 187.36432423 200.84350586 199.73852539 C200.54089844 200.53210449 200.23829102 201.32568359 199.92651367 202.14331055 C191.03187997 224.73495182 174.73018218 243.96813876 152.21459961 253.84399414 C125.02764835 265.20846897 97.78390123 266.11463173 70.03100586 256.11352539 C61.01142841 252.2741881 50.91461616 245.71324201 44.40600586 238.25024414 C43.95225586 237.87512695 43.49850586 237.50000977 43.03100586 237.11352539 C40.95910378 237.5080652 40.95910378 237.5080652 39.03100586 238.11352539 C38.99342163 239.05989868 38.99342163 239.05989868 38.95507812 240.02539062 C38.83946449 242.86749364 38.7165827 245.70923622 38.59350586 248.55102539 C38.55418945 249.54424805 38.51487305 250.5374707 38.47436523 251.56079102 C38.41152344 252.97714844 38.41152344 252.97714844 38.34741211 254.42211914 C38.31075439 255.29666748 38.27409668 256.17121582 38.23632812 257.07226562 C38.03100586 259.11352539 38.03100586 259.11352539 37.03100586 260.11352539 C34.0973484 260.22705555 31.18812124 260.27771247 28.25366211 260.28149414 C27.37197861 260.28482254 26.4902951 260.28815094 25.58189392 260.2915802 C23.71312992 260.29665323 21.84435682 260.29898841 19.97558594 260.29882812 C17.10914242 260.30101347 14.24308426 260.31916194 11.37670898 260.33813477 C9.56486135 260.34106878 7.75301188 260.34305352 5.94116211 260.34399414 C5.07967056 260.35117966 4.21817902 260.35836517 3.33058167 260.36576843 C-2.74017254 260.34234699 -2.74017254 260.34234699 -4.96899414 258.11352539 C-5.2185418 256.21838754 -5.2185418 256.21838754 -5.21788311 253.8565588 C-5.22248191 252.95796074 -5.2270807 252.05936268 -5.23181885 251.13353437 C-5.22667529 250.14006846 -5.22153173 249.14660255 -5.2162323 248.12303162 C-5.21864672 247.07255538 -5.22106113 246.02207914 -5.22354871 244.93977028 C-5.22921406 241.39663383 -5.22050122 237.85367541 -5.21191406 234.31054688 C-5.21298623 231.77988638 -5.21492394 229.24922613 -5.21766663 226.71856689 C-5.22202266 220.54486439 -5.21705833 214.37122869 -5.20781633 208.19753342 C-5.19744888 201.01476423 -5.19750207 193.8320067 -5.19798891 186.64923144 C-5.19848987 173.83792033 -5.18931831 161.02663415 -5.17480469 148.21533203 C-5.16071362 135.77066595 -5.15363401 123.32602182 -5.15429688 110.88134766 C-5.15433683 110.11478064 -5.15437679 109.34821363 -5.15441795 108.55841731 C-5.15445831 107.79320339 -5.15449866 107.02798947 -5.15454024 106.23958725 C-5.15522931 92.09000736 -5.14934485 77.94043684 -5.14038702 63.79085998 C-5.13736514 58.77839872 -5.13630681 53.76593917 -5.13585472 48.7534771 C-5.13510311 42.01404615 -5.1287784 35.27464166 -5.11868858 28.53521729 C-5.11575534 26.05391139 -5.11453987 23.57260281 -5.11511612 21.09129524 C-5.11560301 17.71985019 -5.10998888 14.34847139 -5.10270691 10.97703552 C-5.10425551 9.98133889 -5.10580411 8.98564226 -5.10739964 7.959773 C-5.1041752 7.06378269 -5.10095075 6.16779238 -5.09762859 5.24465084 C-5.09692417 4.46540971 -5.09621974 3.68616857 -5.09549397 2.88331407 C-4.84413664 -0.63328633 -3.67404018 0.1050888 0 0 Z " fill="#020202" transform="translate(1782.968994140625,301.886474609375)"/>
<path d="M0 0 C1.02020268 -0.00480972 1.02020268 -0.00480972 2.06101552 -0.0097166 C4.36272652 -0.01808356 6.66418183 -0.01206919 8.96589756 -0.00622082 C10.6236571 -0.00923846 12.28141524 -0.01312598 13.9391709 -0.01781338 C18.51231679 -0.02815212 23.08538481 -0.02589672 27.65853727 -0.02163279 C32.58363128 -0.01917616 37.50870601 -0.02816643 42.43379307 -0.03567028 C52.08933065 -0.048449 61.74484046 -0.05020704 71.40038507 -0.04787002 C79.24499553 -0.04609025 87.08959752 -0.04782914 94.93420696 -0.05209446 C96.04876503 -0.05268965 97.1633231 -0.05328484 98.31165566 -0.05389806 C100.5755494 -0.05510976 102.83944314 -0.05632389 105.10333688 -0.05754044 C126.35570143 -0.06842818 147.60805013 -0.06624764 168.86041559 -0.06015559 C188.32252635 -0.0549852 207.78458708 -0.06624293 227.24668794 -0.08525381 C247.20843955 -0.10460397 267.17016745 -0.11289319 287.1319285 -0.10913056 C298.3477293 -0.10721424 309.56348749 -0.10974789 320.77928066 -0.1238451 C330.32716963 -0.13572398 339.87498978 -0.13720323 349.42287963 -0.12505493 C354.29812643 -0.1191416 359.17324715 -0.11813409 364.04848576 -0.13005733 C368.50631298 -0.1408334 372.9639076 -0.13791255 377.42172355 -0.12379565 C379.03947212 -0.1211257 380.65723843 -0.12358641 382.27496969 -0.13153151 C384.46438618 -0.14154288 386.65297917 -0.13329828 388.84236145 -0.12025452 C390.06131873 -0.12030953 391.280276 -0.12036455 392.53617138 -0.12042123 C395.4841013 0.25447559 395.4841013 0.25447559 397.40474707 1.594827 C398.4841013 3.25447559 398.4841013 3.25447559 398.39550877 6.18358326 C397.39386206 9.55852729 396.3939382 10.94895872 393.90158176 13.38875294 C392.76437183 14.52055485 392.76437183 14.52055485 391.60418797 15.67522144 C390.77823124 16.47223469 389.95227451 17.26924793 389.1012888 18.09041309 C388.25365971 18.92859577 387.40603062 19.76677845 386.5327158 20.6303606 C383.8197278 23.30877317 381.09022288 25.96956718 378.3591013 28.62947559 C375.6528576 31.28555007 372.95017442 33.94517015 370.24975681 36.60716724 C368.56986568 38.26092934 366.88605587 39.91072364 365.19769382 41.55583668 C361.03104125 45.63554787 357.08605477 49.79819456 353.28784275 54.22093678 C349.80046994 58.15260224 346.03028148 61.80872509 342.2966013 65.50447559 C341.00459812 66.79079884 341.00459812 66.79079884 339.68649387 68.10310841 C336.03396147 71.73942498 332.37546494 75.3697193 328.71749973 79.00056934 C326.03344974 81.66645156 323.35246888 84.33539369 320.6716013 87.00447559 C319.8547385 87.81304005 319.03787571 88.6216045 318.1962595 89.45467091 C314.67296297 92.96300265 311.22781422 96.48469209 307.9841013 100.25447559 C303.98387367 104.90346657 299.65346679 109.19187059 295.2966013 113.50447559 C294.00459812 114.79079884 294.00459812 114.79079884 292.68649387 116.10310841 C289.03396147 119.73942498 285.37546494 123.3697193 281.71749973 127.00056934 C279.03344974 129.66645156 276.35246888 132.33539369 273.6716013 135.00447559 C272.8547385 135.81304005 272.03787571 136.6216045 271.1962595 137.45467091 C267.67296297 140.96300265 264.22781422 144.48469209 260.9841013 148.25447559 C256.98387367 152.90346657 252.65346679 157.19187059 248.2966013 161.50447559 C247.00459812 162.79079884 247.00459812 162.79079884 245.68649387 164.10310841 C242.03396147 167.73942498 238.37546494 171.3697193 234.71749973 175.00056934 C232.03344974 177.66645156 229.35246888 180.33539369 226.6716013 183.00447559 C225.8547385 183.81304005 225.03787571 184.6216045 224.1962595 185.45467091 C220.04233833 189.59094878 216.07460314 193.8058782 212.25174046 198.24861622 C206.60688196 204.65421787 200.43604424 210.60982572 194.42257786 216.66609669 C192.70465112 218.40071186 190.99212554 220.1406919 189.28488255 221.88582325 C186.80854994 224.4166693 184.31639592 226.93089823 181.8200388 229.44197559 C181.05847477 230.22620899 180.29691074 231.01044239 179.51226902 231.81844044 C178.79447269 232.53338673 178.07667637 233.24833302 177.33712864 233.98494434 C176.71204411 234.61811573 176.08695957 235.25128712 175.44293308 235.90364552 C172.92283839 237.64152813 171.48302372 237.74735449 168.4841013 237.25447559 C166.31746417 234.0045199 166.23398112 233.11990503 166.2325449 229.36737537 C166.22447063 227.85569782 166.22447063 227.85569782 166.21623325 226.31348133 C166.22035725 225.20853825 166.22448124 224.10359516 166.2287302 222.96516895 C166.22329952 221.21833317 166.22329952 221.21833317 166.21775913 219.43620777 C166.21085585 216.90222362 166.20836143 214.36822457 166.20970631 211.83423138 C166.21066973 207.81957951 166.19817487 203.80510343 166.18072605 199.79050159 C166.13373291 188.37397905 166.10978004 176.95746749 166.10324192 165.54085255 C166.09947877 159.23591978 166.08134473 152.93118503 166.04814756 146.62633711 C166.03131469 143.29362458 166.024428 139.96158386 166.03108692 136.62878704 C166.0381805 132.90207166 166.02082442 129.17618146 165.99826145 125.44954395 C166.00643391 124.35877048 166.01460636 123.26799702 166.02302647 122.14416981 C165.90851851 111.46966351 162.53135261 102.74481676 155.250947 94.82527637 C152.36379506 92.14269366 149.58959571 90.351482 146.15207005 88.43416309 C145.54566181 88.09537128 144.93925358 87.75657948 144.31446934 87.40752125 C137.92158301 83.87352899 131.39307205 80.61094647 124.84042454 77.38576221 C121.31192933 75.64848991 117.79058573 73.89684356 114.26925755 72.14510059 C113.58233829 71.80360981 112.89541904 71.46211903 112.18768406 71.11028004 C106.99650995 68.52386745 101.85023578 65.8615551 96.7341013 63.12947559 C88.44808494 58.7076337 80.04978531 54.51905664 71.64071751 50.33791065 C63.63184468 46.35373771 55.67553165 42.28986304 47.78268528 38.08040333 C41.37099282 34.67916692 34.87844105 31.44737592 28.37609959 28.22404957 C-5.18713787 11.58323643 -5.18713787 11.58323643 -8.5158987 8.25447559 C-8.7033987 5.31697559 -8.7033987 5.31697559 -8.5158987 2.25447559 C-5.70373909 -0.55768402 -3.94275958 0.00280399 0 0 Z " fill="#010101" transform="translate(399.5158987045288,379.7455244064331)"/>
<path d="M0 0 C1.25840899 -0.00397441 2.51681798 -0.00794881 3.81336057 -0.01204365 C7.27135995 -0.02253616 10.72909729 -0.01456385 14.18708491 -0.00329316 C17.92928933 0.00560637 21.67146157 -0.0029108 25.41366577 -0.00915527 C32.72802183 -0.01860923 40.04227876 -0.01207496 47.35662742 0.00010767 C55.87486369 0.013765 64.39307666 0.01208675 72.91132109 0.00997434 C88.10295956 0.00678993 103.29455101 0.01842443 118.48617554 0.03804016 C133.23228382 0.05707562 147.97833709 0.06411829 162.72445679 0.05854797 C178.79272772 0.05249615 194.86097452 0.05265369 210.92924345 0.06403381 C212.64058709 0.0652411 214.35193074 0.06644709 216.06327438 0.06765175 C216.90527085 0.06825529 217.74726731 0.06885883 218.61477882 0.06948065 C224.55613243 0.07336444 230.49747706 0.07296454 236.43883133 0.0710659 C243.66876565 0.06894849 250.89865172 0.07413435 258.12857242 0.08867946 C261.81896066 0.09594285 265.50927847 0.09998384 269.1996727 0.0954361 C273.19208209 0.09063556 277.18436235 0.10123622 281.17675781 0.11352539 C282.35337687 0.10974607 283.52999593 0.10596674 284.74227011 0.10207289 C286.33602125 0.11082118 286.33602125 0.11082118 287.96196938 0.11974621 C288.88426043 0.12061299 289.80655149 0.12147976 290.75679076 0.12237281 C292.95346069 0.3742218 292.95346069 0.3742218 294.95346069 2.3742218 C295.38114919 5.83064235 295.42441675 7.68023994 293.44404602 10.59843445 C292.73679886 11.28934174 292.0295517 11.98024902 291.3008728 12.6920929 C290.50261581 13.48666901 289.70435883 14.28124512 288.88191223 15.09989929 C288.00704666 15.9406601 287.13218109 16.7814209 286.23080444 17.6476593 C285.33736832 18.53023407 284.44393219 19.41280884 283.52342224 20.3221283 C281.1443726 22.66777017 278.75352587 24.9998679 276.35543823 27.32594299 C272.99991923 30.58706442 269.66836439 33.87269812 266.33348083 37.15489197 C264.55941637 38.89812186 262.78102148 40.63695938 260.99763489 42.37065125 C256.6957314 46.57059938 252.59322692 50.83739948 248.68019104 55.40086365 C243.27795761 61.57469467 237.36363795 67.31182118 231.59384155 73.13887024 C229.95764564 74.79672576 228.32774668 76.46081949 226.70419312 78.13105774 C224.33698837 80.56545963 221.95041337 82.97931953 219.55892944 85.3898468 C218.84504562 86.13156128 218.1311618 86.87327576 217.39564514 87.63746643 C216.69824722 88.33208984 216.0008493 89.02671326 215.28231812 89.74238586 C214.68610153 90.34890991 214.08988495 90.95543396 213.4756012 91.58033752 C206.06789058 96.84910649 198.50061604 97.96068045 189.61024475 97.88215637 C188.5108363 97.88839633 187.41142785 97.8946363 186.27870399 97.90106535 C182.61757715 97.91694139 178.95712104 97.90441178 175.29598999 97.89179993 C172.66224746 97.89722328 170.02855021 97.90420301 167.39482117 97.91304016 C160.9989186 97.9307743 154.60320438 97.9270092 148.20729461 97.9153896 C143.00971509 97.90633929 137.81218819 97.90513815 132.61460304 97.90948486 C131.50310559 97.91040426 131.50310559 97.91040426 130.36915365 97.91134223 C128.86368163 97.91262118 127.35820963 97.91391803 125.85273764 97.9152326 C111.75649809 97.92662239 97.66036281 97.91354782 83.56414036 97.89203113 C71.47047305 97.87414305 59.37695925 97.87728138 47.28329468 97.89570618 C33.22818136 97.91710931 19.17315914 97.92554338 5.1180318 97.91325712 C3.61976772 97.91198295 2.12150363 97.91072547 0.62323952 97.90948486 C-0.48245265 97.90855921 -0.48245265 97.90855921 -1.61048204 97.90761486 C-6.80402174 97.90416166 -11.99750358 97.90998924 -17.19103432 97.91940308 C-24.17691352 97.93178799 -31.16249735 97.92297968 -38.14834785 97.89982605 C-40.715055 97.8945271 -43.28178652 97.89607287 -45.84848404 97.90487671 C-49.34540281 97.9157677 -52.84138301 97.90214547 -56.33824158 97.88215637 C-57.35963032 97.89107926 -58.38101905 97.90000215 -59.43335897 97.90919542 C-63.80827515 97.86051001 -66.3366918 97.8064087 -70.13495159 95.49385834 C-73.57915214 91.67480611 -74.29847525 88.17197703 -74.34732056 83.12812805 C-74.35698853 82.13305237 -74.36665649 81.13797668 -74.37661743 80.11274719 C-74.25729862 58.5541573 -70.14355901 39.64442504 -55.04653931 23.3742218 C-54.52962524 22.76707336 -54.01271118 22.15992493 -53.48013306 21.53437805 C-39.86082058 6.48145374 -19.74461417 -0.12613785 0 0 Z " fill="#000000" transform="translate(640.0465393066406,233.6257781982422)"/>
<path d="M0 0 C0.80179688 0.64453125 1.60359375 1.2890625 2.4296875 1.953125 C17.83835802 14.91368899 26.34331702 32.71118045 31 52 C31.17805176 52.61786377 31.35610352 53.23572754 31.53955078 53.87231445 C33.33742539 60.65781546 33.30445677 67.39970809 33.26074219 74.38647461 C33.24989363 76.45780858 33.26075551 78.52829956 33.2734375 80.59960938 C33.27085937 81.90607422 33.26828125 83.21253906 33.265625 84.55859375 C33.26336914 85.74767334 33.26111328 86.93675293 33.25878906 88.16186523 C33 91 33 91 31 93 C28.31759453 93.24609566 28.31759453 93.24609566 24.83712769 93.24050903 C23.52177032 93.24325836 22.20641296 93.24600769 20.85119629 93.24884033 C19.38500886 93.24176153 17.91882235 93.2344919 16.45263672 93.22705078 C14.91541552 93.2264869 13.37819378 93.22680277 11.8409729 93.22793579 C7.65935965 93.22851121 3.47786039 93.21672633 -0.70372629 93.20278788 C-5.07061598 93.19031202 -9.43750808 93.18911251 -13.80441284 93.18673706 C-22.07754149 93.18051302 -30.35061748 93.16408974 -38.62372291 93.14403808 C-48.04075323 93.12170778 -57.45778602 93.11069288 -66.87483621 93.10064721 C-86.24992069 93.07972429 -105.62495612 93.0445304 -125 93 C-124.39553301 96.00267134 -123.7838114 99.00356528 -123.16796875 102.00390625 C-122.99970581 102.84360962 -122.83144287 103.68331299 -122.65808105 104.54846191 C-119.27832496 120.90838325 -112.26038834 135.13343521 -98.60546875 145.31640625 C-87.26200049 152.64629354 -76.3424501 154.35072668 -63.0625 154.3125 C-61.94681641 154.32861328 -60.83113281 154.34472656 -59.68164062 154.36132812 C-46.7488782 154.36890444 -34.40508353 150.53665852 -24.53515625 141.82421875 C-19.00615112 135.86277746 -15.94606414 129.4784705 -13 122 C-11.07742825 120.07742825 -8.21914892 120.87091576 -5.66125488 120.86105347 C-4.32846497 120.86408981 -4.32846497 120.86408981 -2.96875 120.8671875 C-2.06249878 120.86623077 -1.15624756 120.86527405 -0.22253418 120.86428833 C1.69751047 120.86360647 3.61755741 120.86546118 5.53759766 120.86962891 C8.48735704 120.87497708 11.43696414 120.86968412 14.38671875 120.86328125 C16.24739617 120.86394203 18.1080735 120.86522319 19.96875 120.8671875 C20.85727661 120.86516327 21.74580322 120.86313904 22.66125488 120.86105347 C28.88505012 120.88505012 28.88505012 120.88505012 30 122 C29.41818645 139.74531324 17.31790911 156.44909933 4.87890625 168.359375 C-6.76853588 178.52969869 -21.13794023 185.1202634 -36 189 C-36.74765625 189.21269531 -37.4953125 189.42539062 -38.265625 189.64453125 C-63.60531242 196.5780284 -94.09800877 192.36379554 -117.09570312 180.09130859 C-122.1204303 177.2117534 -126.59716366 173.75914681 -131 170 C-131.88171875 169.2678125 -132.7634375 168.535625 -133.671875 167.78125 C-147.266608 156.08154038 -156.00883551 141.46721601 -161.9375 124.6875 C-162.21988525 123.88844238 -162.50227051 123.08938477 -162.79321289 122.26611328 C-166.56680131 110.99507658 -167.37299586 100.14380705 -167.37060547 88.35083008 C-167.3749489 85.96556496 -167.41129617 83.58220175 -167.44921875 81.19726562 C-167.657663 52.72664383 -156.80028055 26.48639463 -137.1875 5.875 C-101.08083251 -29.17178488 -38.73513707 -32.66168352 0 0 Z " fill="#020202" transform="translate(2179,373)"/>
<path d="M0 0 C1.33278992 0.00303635 1.33278992 0.00303635 2.69250488 0.00613403 C3.5987561 0.00517731 4.50500732 0.00422058 5.4387207 0.00323486 C7.35876535 0.002553 9.27881229 0.00440771 11.19885254 0.00857544 C14.14861192 0.01392361 17.09821902 0.00863066 20.04797363 0.00222778 C21.90865105 0.00288856 23.76932838 0.00416972 25.63000488 0.00613403 C26.51853149 0.0041098 27.40705811 0.00208557 28.32250977 0 C34.546305 0.02399665 34.546305 0.02399665 35.66125488 1.13894653 C35.78612442 3.510962 35.8472554 5.85534996 35.86657715 8.22903442 C35.87647675 8.97045181 35.88637634 9.7118692 35.89657593 10.47575378 C35.92827954 12.93767046 35.95298315 15.39960646 35.97766113 17.86160278 C35.99822303 19.56411758 36.01921929 21.26662719 36.04063416 22.96913147 C36.09593388 27.45881963 36.14530817 31.94855445 36.19348145 36.43832397 C36.24363895 41.01630832 36.29935496 45.59422456 36.35461426 50.17214966 C36.46229239 59.16102383 36.56371577 68.14995703 36.66125488 77.13894653 C39.95117581 76.41629766 41.27605739 75.77450834 43.47375488 73.20144653 C58.39025098 57.71123904 80.69009635 49.36688978 101.93103027 48.71707153 C125.55295868 48.56441038 146.74373835 56.56493287 163.66125488 73.13894653 C164.28902832 73.73062622 164.91680176 74.32230591 165.56359863 74.93191528 C179.48565655 89.23280471 182.81306934 109.06613941 182.80651855 128.12063599 C182.80951392 129.53712553 182.81291731 130.95361426 182.81669617 132.37010193 C182.82549571 136.20028245 182.82787239 140.03044062 182.82851195 143.86063027 C182.82922403 146.25356226 182.83136119 148.6464886 182.83400917 151.03941917 C182.8432447 159.38648209 182.84734575 167.73352907 182.84655762 176.08059692 C182.84595525 183.86568226 182.85654267 191.65069865 182.87230128 199.43576652 C182.88535451 206.12208645 182.89074255 212.80838376 182.89010221 219.49471635 C182.88984684 223.48757907 182.89272025 227.48038032 182.90328026 231.47323036 C182.91292554 235.22185146 182.9130652 238.97035175 182.90576363 242.71897697 C182.90471376 244.09688111 182.90710436 245.47479264 182.91312408 246.85268402 C182.9207891 248.72802249 182.91502488 250.60340175 182.90849304 252.47874451 C182.90903781 253.52971471 182.90958258 254.58068491 182.91014385 255.66350269 C182.66125488 258.13894653 182.66125488 258.13894653 180.66125488 260.13894653 C177.67163385 260.33900956 174.77663138 260.41867576 171.78625488 260.40457153 C170.90598633 260.40648499 170.02571777 260.40839844 169.11877441 260.41036987 C167.25597854 260.41173205 165.39317319 260.40803335 163.53039551 260.39968872 C160.67275752 260.3889896 157.81574823 260.39958285 154.95812988 260.41238403 C153.15083682 260.41106244 151.34354416 260.40850006 149.53625488 260.40457153 C148.67790039 260.40862 147.8195459 260.41266846 146.93518066 260.4168396 C140.89117233 260.36886398 140.89117233 260.36886398 138.66125488 258.13894653 C138.4107151 255.78399754 138.4107151 255.78399754 138.40969849 252.77140808 C138.40162422 251.06202057 138.40162422 251.06202057 138.39338684 249.31809998 C138.39751083 248.06152084 138.40163483 246.80494171 138.40588379 245.51028442 C138.40032587 243.48564001 138.39476363 241.46099561 138.38903975 239.43635166 C138.38469284 237.25484133 138.38517157 235.07337643 138.38685989 232.89186287 C138.3896915 228.33934804 138.37534369 223.78698865 138.35787964 219.23451233 C138.31084775 206.2869097 138.28693549 193.33931629 138.28039551 180.39163208 C138.27663293 173.24436958 138.25850162 166.0972818 138.22530115 158.95009416 C138.20517731 154.43370404 138.20267329 149.91776743 138.21358132 145.40135109 C138.21620736 142.57530618 138.20209173 139.74951946 138.18350029 136.92354202 C138.17572656 135.00888578 138.18754462 133.0941805 138.20018005 131.17955017 C138.08452404 118.95583542 134.46621208 108.47893722 126.07141113 99.42410278 C114.48220241 88.70749331 101.2477875 88.45546354 86.30725098 88.96414185 C74.00861709 89.77663694 62.57240701 96.27740623 54.21594238 105.19363403 C51.24341355 108.9130294 48.93309316 112.96618234 46.66125488 117.13894653 C46.29129395 117.78605591 45.92133301 118.43316528 45.54016113 119.09988403 C35.77556136 137.10930151 36.35732938 157.65112169 36.28234863 177.50222778 C36.26614482 179.8301308 36.24896188 182.15802718 36.23085022 184.48591614 C36.18549987 190.5660293 36.15050577 196.64615163 36.11865234 202.72634888 C36.06643418 212.50235848 36.0017337 222.27827184 35.93043709 232.05415916 C35.9075946 235.46549463 35.89134152 238.87681756 35.87571716 242.28819275 C35.86231962 244.36255032 35.84870563 246.4369065 35.83483887 248.51126099 C35.83091881 249.93786797 35.83091881 249.93786797 35.82691956 251.39329529 C35.81657181 252.69013245 35.81657181 252.69013245 35.80601501 254.01316833 C35.80023264 255.1426387 35.80023264 255.1426387 35.79433346 256.29492664 C35.66125488 258.13894653 35.66125488 258.13894653 34.66125488 260.13894653 C28.84053866 260.16359291 23.01985254 260.18178083 17.19909668 260.19387817 C15.21732047 260.19891921 13.23554799 260.20575191 11.25378418 260.21438599 C8.4117338 260.22646168 5.56973241 260.23217698 2.72766113 260.23660278 C1.39016563 260.24434471 1.39016563 260.24434471 0.02565002 260.25224304 C-2.09615113 260.2524383 -4.21785292 260.20104683 -6.33874512 260.13894653 C-7.88681057 258.59088108 -7.46413913 257.14534959 -7.46458626 254.9894104 C-7.46719401 254.08931999 -7.46980175 253.18922958 -7.47248852 252.26186371 C-7.4702578 251.26159401 -7.46802708 250.26132431 -7.46572876 249.23074341 C-7.46728875 248.17703804 -7.46884874 247.12333267 -7.470456 246.03769684 C-7.47447097 242.47768285 -7.47127444 238.9177109 -7.46813965 235.35769653 C-7.46949347 232.81733169 -7.47127329 230.27696705 -7.47344971 227.73660278 C-7.4775502 221.53537709 -7.47693068 215.33416717 -7.47403707 209.13294125 C-7.47178326 204.09530984 -7.47147041 199.05768182 -7.47256088 194.02005005 C-7.47271412 193.30443106 -7.47286735 192.58881207 -7.47302523 191.85150766 C-7.47334493 190.39796893 -7.47366915 188.94443019 -7.47399782 187.49089146 C-7.47685278 173.84503772 -7.47356533 160.19919069 -7.46819745 146.55333805 C-7.4637294 134.83187085 -7.46450532 123.11041355 -7.46911621 111.38894653 C-7.47446169 97.79358507 -7.47657809 84.19822949 -7.47350395 70.60286713 C-7.47318538 69.15452576 -7.47287101 67.70618439 -7.47256088 66.25784302 C-7.47240661 65.54513827 -7.47225233 64.83243352 -7.47209338 64.09813166 C-7.47122815 59.06363948 -7.47269124 54.02915102 -7.47504044 48.99465942 C-7.47812976 42.22487651 -7.47594608 35.45511528 -7.47014618 28.68533325 C-7.46881782 26.19273917 -7.46921397 23.70014352 -7.47140884 21.20755005 C-7.47411737 17.82072817 -7.47074288 14.43396757 -7.46572876 11.04714966 C-7.46795948 10.04687996 -7.4701902 9.04661026 -7.47248852 8.01602936 C-7.46988078 7.11593895 -7.46727303 6.21584854 -7.46458626 5.28848267 C-7.46442391 4.5056617 -7.46426155 3.72284073 -7.46409428 2.91629791 C-7.16510407 -1.32314536 -3.40258113 0.01311909 0 0 Z " fill="#020202" transform="translate(2685.3387451171875,301.8610534667969)"/>
<path d="M0 0 C1.14082031 0.36222656 2.28164062 0.72445313 3.45703125 1.09765625 C21.54595309 7.42770601 36.07904144 20.10756493 44.60546875 37.22265625 C50.27303641 50.36941876 51.15140716 62.96078386 51.12939453 77.1328125 C51.13075185 78.54136704 51.13253364 79.94992122 51.13470459 81.35847473 C51.13923621 85.15748349 51.13750794 88.95646489 51.1343255 92.75547409 C51.13178374 96.73615337 51.13414412 100.71683039 51.13571167 104.69750977 C51.13752637 111.37174905 51.13514365 118.04597724 51.13037109 124.72021484 C51.12491196 132.44399397 51.12670587 140.16774676 51.1321975 147.89152527 C51.13672731 154.52776312 51.13738037 161.16399303 51.13475883 167.80023193 C51.13319762 171.76227247 51.13299841 175.72430059 51.13629532 179.68634033 C51.13917271 183.40294831 51.13720083 187.11952206 51.13140106 190.83612633 C51.12943797 192.8576134 51.13242724 194.87910335 51.13552856 196.90058899 C51.13270874 198.09218124 51.12988892 199.2837735 51.12698364 200.51147461 C51.1264181 202.07435463 51.1264181 202.07435463 51.12584114 203.66880798 C51 206 51 206 50 207 C46.98191937 207.101137 43.98719487 207.13968909 40.96875 207.1328125 C40.06249878 207.13376923 39.15624756 207.13472595 38.22253418 207.13571167 C36.30248953 207.13639353 34.38244259 207.13453882 32.46240234 207.13037109 C29.51264296 207.12502292 26.56303586 207.13031588 23.61328125 207.13671875 C21.75260383 207.13605797 19.8919265 207.13477681 18.03125 207.1328125 C16.69846008 207.13584885 16.69846008 207.13584885 15.33874512 207.13894653 C9.11494988 207.11494988 9.11494988 207.11494988 8 206 C7.90027746 204.28303724 7.87090971 202.56195694 7.86869812 200.84210205 C7.86268585 199.16435448 7.86268585 199.16435448 7.85655212 197.45271301 C7.8573452 195.59521675 7.8573452 195.59521675 7.8581543 193.70019531 C7.85282034 191.71057696 7.84748041 189.72095861 7.84191763 187.73134089 C7.83670924 185.58428306 7.83380305 183.43723138 7.83133507 181.29016876 C7.82542686 176.80862063 7.80888387 172.32715205 7.78999329 167.84564209 C7.78365494 166.31062704 7.77732933 164.77561193 7.77101612 163.24059677 C7.76785031 162.47152229 7.7646845 161.70244781 7.76142275 160.91006804 C7.71939857 150.47472796 7.68642887 140.03942282 7.67407227 129.60400391 C7.66565746 122.56988145 7.64303305 115.53595396 7.6047166 108.50192904 C7.58505424 104.78299919 7.57251795 101.06436016 7.57755089 97.34537506 C7.58311706 93.18082893 7.55763812 89.01699763 7.5300293 84.85253906 C7.53663071 83.63849899 7.54323212 82.42445892 7.55003357 81.17362976 C7.40192284 67.48433415 3.54608125 56.57967303 -5.375 46.25 C-17.66807619 35.71307756 -30.50917988 34.95937695 -46.17919922 35.75439453 C-58.44573145 36.82243429 -68.55847439 43.44825818 -77.0546875 52.08984375 C-85.60339849 62.29130554 -90.54499991 75.04593245 -93 88 C-93.24981125 89.29776619 -93.24981125 89.29776619 -93.50466919 90.62174988 C-95.47219544 102.40401047 -95.33362612 114.1679526 -95.37890625 126.08203125 C-95.3951064 128.39133897 -95.41228897 130.70063998 -95.43040466 133.00993347 C-95.47578137 139.04441237 -95.51076316 145.07890047 -95.54260254 151.11346436 C-95.59479784 160.81682766 -95.65946115 170.52009381 -95.73081779 180.22333336 C-95.7536867 183.61199925 -95.76992274 187.00065243 -95.78553772 190.38935852 C-95.79893333 192.44682972 -95.81254716 194.50429951 -95.82641602 196.56176758 C-95.83033607 197.98209793 -95.83033607 197.98209793 -95.83433533 199.43112183 C-95.8863449 205.8863449 -95.8863449 205.8863449 -97 207 C-100.01808063 207.101137 -103.01280513 207.13968909 -106.03125 207.1328125 C-106.93750122 207.13376923 -107.84375244 207.13472595 -108.77746582 207.13571167 C-110.69751047 207.13639353 -112.61755741 207.13453882 -114.53759766 207.13037109 C-117.48735704 207.12502292 -120.43696414 207.13031588 -123.38671875 207.13671875 C-125.24739617 207.13605797 -127.1080735 207.13477681 -128.96875 207.1328125 C-130.30153992 207.13584885 -130.30153992 207.13584885 -131.66125488 207.13894653 C-137.88505012 207.11494988 -137.88505012 207.11494988 -139 206 C-139.10004044 203.3468276 -139.13440233 200.7196182 -139.12698364 198.06591797 C-139.12854363 197.22455732 -139.13010362 196.38319668 -139.13171089 195.51634026 C-139.13572452 192.6749386 -139.13252985 189.83358963 -139.12939453 186.9921875 C-139.13074841 184.96413135 -139.13252827 182.93607545 -139.13470459 180.90802002 C-139.1392805 175.3833888 -139.13748872 169.85877616 -139.1343255 164.33414459 C-139.13180271 158.56634977 -139.13413921 152.7985566 -139.13571167 147.03076172 C-139.1375336 137.34277052 -139.13512643 127.65478692 -139.13037109 117.96679688 C-139.12492843 106.74862241 -139.12669107 95.53046612 -139.1321975 84.3122921 C-139.13672795 74.69959545 -139.13737951 65.08690429 -139.13475883 55.47420692 C-139.13319568 49.72464322 -139.13300332 43.97508807 -139.13629532 38.2255249 C-139.13917305 32.82151179 -139.13720015 27.41752222 -139.13140106 22.01351166 C-139.13007294 20.02403553 -139.13046846 18.03455745 -139.13266373 16.04508209 C-139.13537319 13.34138818 -139.13199663 10.63777098 -139.12698364 7.93408203 C-139.12921436 7.13614164 -139.13144509 6.33820126 -139.13374341 5.51608086 C-139.11414984 0.11414984 -139.11414984 0.11414984 -138 -1 C-134.98191937 -1.101137 -131.98719487 -1.13968909 -128.96875 -1.1328125 C-128.06249878 -1.13376923 -127.15624756 -1.13472595 -126.22253418 -1.13571167 C-124.30248953 -1.13639353 -122.38244259 -1.13453882 -120.46240234 -1.13037109 C-117.51264296 -1.12502292 -114.56303586 -1.13031588 -111.61328125 -1.13671875 C-109.75260383 -1.13605797 -107.8919265 -1.13477681 -106.03125 -1.1328125 C-105.14272339 -1.13483673 -104.25419678 -1.13686096 -103.33874512 -1.13894653 C-97.11494988 -1.11494988 -97.11494988 -1.11494988 -96 0 C-95.84259395 1.70563778 -95.74906608 3.41727244 -95.68359375 5.12890625 C-95.64169922 6.16337891 -95.59980469 7.19785156 -95.55664062 8.26367188 C-95.51732422 9.35228516 -95.47800781 10.44089844 -95.4375 11.5625 C-95.39431641 12.65498047 -95.35113281 13.74746094 -95.30664062 14.87304688 C-95.20017932 17.58189564 -95.09816484 20.29083992 -95 23 C-93.10628346 23.66047879 -93.10628346 23.66047879 -91 24 C-88.84493647 22.2257051 -88.84493647 22.2257051 -86.75 19.6875 C-64.83626022 -3.25747459 -29.56081855 -9.58134926 0 0 Z " fill="#010101" transform="translate(2378,355)"/>
<path d="M0 0 C1.2748397 0.00092179 2.54967939 0.00184359 3.8631506 0.00279331 C4.57045958 0.00193889 5.27776856 0.00108446 6.00651115 0.00020415 C8.39420988 -0.00145272 10.78183949 0.00407406 13.16953182 0.00952244 C14.87409113 0.00980429 16.57865056 0.00964661 18.2832098 0.00907993 C22.92557505 0.00879189 27.5679147 0.01468976 32.21027398 0.02165389 C37.05630601 0.02788624 41.90233857 0.02849113 46.74837399 0.0296793 C55.93170669 0.03279297 65.11502756 0.04100683 74.29835504 0.05102879 C84.75041476 0.06218883 95.20247504 0.0677001 105.65453923 0.07272422 C127.16141659 0.08318942 148.66827771 0.10153533 170.17514706 0.12304783 C170.17514706 12.33304783 170.17514706 24.54304783 170.17514706 37.12304783 C127.93514706 37.45304783 85.69514706 37.78304783 42.17514706 38.12304783 C42.17514706 60.23304783 42.17514706 82.34304783 42.17514706 105.12304783 C49.59885799 105.18363377 57.02256893 105.2442197 64.67124081 105.30664158 C69.36070006 105.34711329 74.05015317 105.38787493 78.73960018 105.42968845 C86.19083279 105.49609962 93.64206411 105.56140869 101.09335995 105.62036228 C107.09745747 105.66793277 113.10149584 105.72027265 119.10552311 105.77598858 C121.40174617 105.79644539 123.69798547 105.81515283 125.99423695 105.83212185 C129.19839919 105.85609248 132.40244846 105.8861567 135.60654354 105.91772556 C136.56607433 105.92348103 137.52560513 105.92923649 138.51421261 105.93516636 C139.38224514 105.94495518 140.25027767 105.954744 141.14461422 105.96482944 C141.90324985 105.971282 142.66188547 105.97773455 143.44351006 105.98438263 C145.17514706 106.12304783 145.17514706 106.12304783 146.17514706 107.12304783 C146.2761027 109.77760976 146.31485704 112.40559959 146.30795956 115.06054783 C146.30891628 115.85581882 146.30987301 116.65108982 146.31085873 117.47045994 C146.31154049 119.15511243 146.30968648 120.83976754 146.30551815 122.52441502 C146.30016981 125.11203979 146.30546325 127.69949099 146.31186581 130.28711033 C146.31120502 131.91992321 146.30992386 133.55273599 146.30795956 135.18554783 C146.30998379 135.96470554 146.31200802 136.74386326 146.31409359 137.54663181 C146.2900981 143.00809678 146.2900981 143.00809678 145.17514706 144.12304783 C143.8222103 144.23041928 142.46379287 144.26983421 141.10665035 144.28126621 C139.79198032 144.29594944 139.79198032 144.29594944 138.4507513 144.3109293 C136.99742901 144.31956249 136.99742901 144.31956249 135.51474667 144.32837009 C134.5002293 144.33826969 133.48571194 144.34816929 132.44045162 144.35836887 C129.06948885 144.39008911 125.69851195 144.41478273 122.32749081 144.43945408 C119.99721048 144.46001453 117.66693396 144.48101075 115.33666134 144.5024271 C109.18981659 144.55774168 103.04293766 144.60710943 96.89603329 144.65527439 C90.62901406 144.70542106 84.36204474 144.76114271 78.09506893 144.8164072 C65.78847089 144.92410351 53.48182961 145.02552283 41.17514706 145.12304783 C41.17091512 145.71995898 41.16668318 146.31687014 41.162323 146.93186951 C41.05915125 161.43622519 40.95053398 175.94053246 40.8358078 190.44480133 C40.78045997 197.45887088 40.72697547 204.47294551 40.6778326 211.4870615 C40.63044601 218.24976717 40.57792634 225.0124148 40.52220631 231.77505779 C40.5017477 234.36155554 40.48304058 236.94806772 40.46607304 239.53459072 C40.44210637 243.14347551 40.41204158 246.75225984 40.38046932 250.36108494 C40.37471386 251.44217533 40.3689584 252.52326572 40.36302853 253.63711643 C40.3483453 255.10324123 40.3483453 255.10324123 40.33336544 256.59898472 C40.32691289 257.45348681 40.32046034 258.30798891 40.31381226 259.18838501 C40.17514706 261.12304783 40.17514706 261.12304783 39.17514706 262.12304783 C36.07263505 262.21178918 32.99246585 262.23823238 29.88999081 262.22070408 C28.95917187 262.21928913 28.02835293 262.21787418 27.06932735 262.21641636 C24.08373515 262.21079955 21.09821676 262.19824423 18.11264706 262.18554783 C16.09376793 262.18053499 14.07488763 262.17597171 12.05600643 262.17187595 C7.09569134 262.16082466 2.13543173 262.14354878 -2.82485294 262.12304783 C-3.99243826 259.7878772 -3.95015642 258.43614843 -3.95069408 255.8348465 C-3.95330183 254.92928164 -3.95590958 254.02371679 -3.95859635 253.09071058 C-3.95636563 252.08946277 -3.95413491 251.08821497 -3.95183659 250.05662632 C-3.95339658 248.99798297 -3.95495657 247.93933963 -3.95656383 246.84861618 C-3.96057347 243.27788876 -3.95738432 239.70720335 -3.95424747 236.13647556 C-3.95560152 233.58611113 -3.95738147 231.0357469 -3.95955753 228.48538303 C-3.96365557 222.2635731 -3.96303984 216.0417789 -3.96014489 209.81996875 C-3.95789015 204.76567552 -3.95757864 199.71138568 -3.95866871 194.65709209 C-3.95882194 193.93883324 -3.95897517 193.22057438 -3.95913305 192.4805501 C-3.95945276 191.0216159 -3.95977698 189.5626817 -3.96010564 188.10374749 C-3.9629597 174.41163073 -3.95967447 160.71952064 -3.95430528 147.02740497 C-3.94983635 135.26672073 -3.95061404 123.50604635 -3.95522404 111.74536228 C-3.96056947 98.10201688 -3.96268602 84.45867734 -3.95961177 70.81533104 C-3.95929321 69.36194996 -3.95897884 67.90856888 -3.95866871 66.4551878 C-3.95851443 65.74001393 -3.95836016 65.02484005 -3.95820121 64.28799425 C-3.95733603 59.23645853 -3.95879893 54.18492652 -3.96114826 49.13339138 C-3.96423747 42.3414343 -3.96205409 35.54949882 -3.95625401 28.75754261 C-3.95492564 26.25688489 -3.9553218 23.75622561 -3.95751667 21.2555685 C-3.96022517 17.85785255 -3.95685076 14.46019769 -3.95183659 11.06248569 C-3.95406731 10.05900717 -3.95629803 9.05552864 -3.95859635 8.02164167 C-3.9559886 7.11868457 -3.95338085 6.21572746 -3.95069408 5.28540802 C-3.95053173 4.50009136 -3.95036938 3.7147747 -3.95020211 2.90566057 C-3.73750673 -0.11911817 -3.05757375 0.13318492 0 0 Z " fill="#020202" transform="translate(1023.8248529434204,299.8769521713257)"/>
<path d="M0 0 C13.90439422 11.89294393 23.13149782 27.85604676 27.03125 45.69140625 C27.21875 49.62890625 27.21875 49.62890625 27.03125 52.69140625 C24.88943355 54.8332227 20.00547074 53.85564169 17.03515625 53.859375 C16.1312767 53.8627034 15.22739716 53.8660318 14.29612732 53.86946106 C12.38028473 53.87453421 10.46443328 53.87686927 8.54858398 53.87670898 C5.60971582 53.87889438 2.67122348 53.8970429 -0.26757812 53.91601562 C-2.12499871 53.91894962 -3.98242109 53.92093438 -5.83984375 53.921875 C-6.72320908 53.92906052 -7.6065744 53.93624603 -8.51670837 53.94364929 C-14.73992861 53.92022764 -14.73992861 53.92022764 -16.96875 51.69140625 C-17.41081021 50.39374564 -17.79959736 49.07759019 -18.15625 47.75390625 C-22.0414551 35.83034577 -29.93056027 26.8424411 -41.0625 21.09375 C-55.76444121 14.72662142 -71.90477325 12.9367697 -87.19140625 18.5078125 C-100.53049535 24.19240321 -111.15294993 32.75604375 -117.96875 45.69140625 C-118.42765625 46.51898438 -118.8865625 47.3465625 -119.359375 48.19921875 C-129.35016244 67.87986629 -129.46726014 91.37009227 -122.90234375 112.05078125 C-116.84770101 129.07571727 -106.77229124 141.68763165 -90.40625 149.50390625 C-75.20670616 155.92149143 -58.46776479 155.35292406 -43.109375 149.625 C-32.52807776 145.19663941 -24.48881714 138.87127032 -18.96875 128.69140625 C-17.71976443 125.51009954 -16.65606417 122.34158721 -15.6953125 119.0625 C-14.96875 116.69140625 -14.96875 116.69140625 -13.96875 115.69140625 C-10.87793535 115.59023705 -7.80992445 115.55172067 -4.71875 115.55859375 C-3.79030273 115.55763702 -2.86185547 115.5566803 -1.90527344 115.55569458 C0.06184965 115.5550127 2.02897496 115.55686753 3.99609375 115.56103516 C7.01828026 115.5663833 10.04031815 115.56109043 13.0625 115.5546875 C14.96875033 115.55534828 16.87500057 115.55662944 18.78125 115.55859375 C19.69165039 115.55656952 20.60205078 115.55454529 21.54003906 115.55245972 C27.91630031 115.57645656 27.91630031 115.57645656 29.03125 116.69140625 C29.70988156 129.70342879 22.49507998 143.55534085 15.03125 153.69140625 C14.36351563 154.6040625 13.69578125 155.51671875 13.0078125 156.45703125 C-2.37845905 176.34253744 -25.47855859 187.5774524 -50.11328125 191.1875 C-65.34889084 193.00960307 -81.11673613 192.65301254 -95.96875 188.69140625 C-97.82113281 188.19833984 -97.82113281 188.19833984 -99.7109375 187.6953125 C-125.64799274 179.90341129 -145.69815892 161.89570559 -158.77734375 138.44921875 C-167.81539167 121.3060827 -171.40275379 103.94554537 -171.34375 84.62890625 C-171.3425415 83.89774597 -171.34133301 83.16658569 -171.34008789 82.41326904 C-171.20840467 53.04871457 -160.97150115 27.83632457 -140.84375 6.19140625 C-127.86291632 -6.2901646 -111.43636105 -15.27760658 -93.96875 -19.30859375 C-92.82277344 -19.60636719 -91.67679688 -19.90414063 -90.49609375 -20.2109375 C-59.1145134 -27.62095158 -25.25305094 -19.63756988 0 0 Z " fill="#010101" transform="translate(2624.96875,373.30859375)"/>
<path d="M0 0 C11.1620664 9.87926175 18.24719728 21.77773163 21.6171875 36.31640625 C21.6171875 39.28640625 21.6171875 42.25640625 21.6171875 45.31640625 C8.0871875 45.31640625 -5.4428125 45.31640625 -19.3828125 45.31640625 C-20.7028125 41.68640625 -22.0228125 38.05640625 -23.3828125 34.31640625 C-28.63280074 25.69142556 -35.44568221 21.2183836 -45.1328125 18.44140625 C-57.19034876 15.86316226 -70.23564604 16.09969346 -80.90234375 22.9296875 C-85.95273336 27.0336978 -87.9575731 30.3694659 -88.66015625 36.890625 C-88.91177776 41.38912664 -88.95794799 45.23293108 -86.5078125 49.12890625 C-79.49505461 56.96632418 -69.66053714 59.82015554 -59.8203125 62.44140625 C-58.57958984 62.78486084 -57.33886719 63.12831543 -56.06054688 63.48217773 C-49.53274932 65.27034137 -42.9913542 66.92062625 -36.3828125 68.37890625 C-17.94958065 72.47058261 -0.91887971 78.80347762 12.6171875 92.31640625 C13.27847656 92.96609375 13.93976563 93.61578125 14.62109375 94.28515625 C25.81877816 106.08746725 27.27516641 120.6846947 26.9921875 136.19921875 C26.27048467 152.90663924 18.67457699 166.25829403 6.69921875 177.7421875 C-10.86904307 193.04834379 -35.45225466 197.67168074 -58.12695312 196.48925781 C-83.18860197 194.56894965 -105.5933416 185.50437299 -122.3828125 166.31640625 C-130.85402136 155.15754478 -137.27380365 140.57226458 -136.3828125 126.31640625 C-135.3828125 125.31640625 -135.3828125 125.31640625 -131.59741211 125.20288086 C-129.90998521 125.20304003 -128.22255345 125.20873708 -126.53515625 125.21875 C-125.20551598 125.22087242 -125.20551598 125.22087242 -123.84901428 125.22303772 C-121.00607996 125.2286541 -118.16322319 125.24120934 -115.3203125 125.25390625 C-113.39778759 125.25891914 -111.47526146 125.26348241 -109.55273438 125.26757812 C-104.82939701 125.27862884 -100.10611792 125.29590442 -95.3828125 125.31640625 C-94.90198153 126.75836992 -94.42119599 128.20034875 -93.94042969 129.64233398 C-93.67268738 130.44533432 -93.40494507 131.24833466 -93.12908936 132.07566833 C-92.5713221 133.75039564 -92.01560576 135.42580626 -91.4609375 137.1015625 C-88.45602383 145.3650751 -84.22612421 151.11367179 -76.3203125 155.19140625 C-68.27105561 158.92250426 -61.4854677 159.68146826 -52.6953125 159.69140625 C-51.57447266 159.71589844 -50.45363281 159.74039063 -49.29882812 159.765625 C-39.54706906 159.79958353 -29.97859063 157.82707322 -22.3828125 151.31640625 C-16.39970989 143.27915942 -15.58461011 136.26583042 -16.3828125 126.31640625 C-18.20564586 120.18126996 -23.03399051 116.26685498 -28.38354492 113.15112305 C-35.65821489 109.34914142 -43.20770288 107.02312763 -51.0703125 104.75390625 C-52.33037109 104.38072266 -53.59042969 104.00753906 -54.88867188 103.62304688 C-61.33188177 101.72798514 -67.78997627 99.92855389 -74.28515625 98.22265625 C-79.6861157 96.79455694 -85.00037688 95.26806291 -90.2578125 93.37890625 C-91.33011108 92.99387939 -91.33011108 92.99387939 -92.42407227 92.60107422 C-106.70080856 87.34593368 -120.0336978 78.29571645 -126.57421875 64.15625 C-126.97447266 63.24552734 -126.97447266 63.24552734 -127.3828125 62.31640625 C-127.7746875 61.47078125 -128.1665625 60.62515625 -128.5703125 59.75390625 C-132.62788019 47.58120318 -132.25343149 30.69485345 -126.921875 19.16796875 C-126.16003906 17.75644531 -126.16003906 17.75644531 -125.3828125 16.31640625 C-124.87492187 15.35476563 -124.36703125 14.393125 -123.84375 13.40234375 C-114.5092872 -2.65647139 -98.75597162 -10.89615701 -81.3828125 -15.68359375 C-54.63437609 -22.72844943 -21.69144389 -17.37079043 0 0 Z " fill="#010101" transform="translate(1582.3828125,368.68359375)"/>
<path d="M0 0 C1.7297444 0.00025116 3.45949379 0.00581496 5.18920898 0.01586914 C5.99418823 0.01687622 6.79916748 0.0178833 7.62854004 0.0189209 C10.64747534 0.02416925 13.66639041 0.0381304 16.68530273 0.05102539 C23.42967773 0.07165039 30.17405273 0.09227539 37.12280273 0.11352539 C37.12280273 17.27352539 37.12280273 34.43352539 37.12280273 52.11352539 C51.88734725 52.07391832 51.88734725 52.07391832 66.65185547 52.0234375 C68.49503522 52.02051845 70.33821562 52.01796987 72.18139648 52.01586914 C73.63116882 52.00819519 73.63116882 52.00819519 75.11022949 52.00036621 C76.02373169 52.00024536 76.93723389 52.00012451 77.87841797 52 C78.67561752 51.99777939 79.47281708 51.99555878 80.29417419 51.99327087 C82.12280273 52.11352539 82.12280273 52.11352539 83.12280273 53.11352539 C83.22363037 55.55012985 83.26252877 57.9577724 83.25561523 60.39477539 C83.25657196 61.12345825 83.25752869 61.85214111 83.2585144 62.60290527 C83.25919609 64.14632249 83.25734261 65.68974256 83.25317383 67.2331543 C83.24782536 69.60349939 83.25311916 71.97365498 83.25952148 74.34399414 C83.2588607 75.84008831 83.25757953 77.33618236 83.25561523 78.83227539 C83.25865158 79.90257996 83.25865158 79.90257996 83.26174927 80.99450684 C83.23775465 85.99857348 83.23775465 85.99857348 82.12280273 87.11352539 C80.74120159 87.20630869 79.35492236 87.23099582 77.97021484 87.22705078 C77.08937729 87.22697525 76.20853973 87.22689972 75.30101013 87.2268219 C74.34372513 87.22166061 73.38644012 87.21649933 72.40014648 87.21118164 C71.42493546 87.20976669 70.44972443 87.20835175 69.44496155 87.20689392 C66.31671131 87.20127672 63.1885315 87.18872132 60.06030273 87.17602539 C57.94506939 87.17101261 55.82983493 87.16644932 53.71459961 87.16235352 C48.51730977 87.1513017 43.32006128 87.13454685 38.12280273 87.11352539 C38.1834736 101.93507708 38.26106908 116.75646067 38.35851765 131.57781792 C38.4033806 138.460473 38.4428168 145.34307745 38.46923828 152.22583008 C38.49476688 158.87194155 38.53573519 165.51784408 38.585989 172.16382217 C38.60263353 174.69541731 38.61416279 177.22705157 38.62041664 179.7586937 C38.63008365 183.31324567 38.65817555 186.86722172 38.69042969 190.42163086 C38.6889946 191.46101303 38.68755951 192.5003952 38.68608093 193.5712738 C38.79400857 202.01888726 40.04817206 210.79111615 45.51342773 217.57446289 C51.78411863 223.57119156 58.66803938 224.67070893 67.0637207 224.51196289 C72.4455702 224.28692 77.68492285 223.54016822 82.96264648 222.45336914 C83.67549805 222.3412207 84.38834961 222.22907227 85.12280273 222.11352539 C86.12280273 223.11352539 86.12280273 223.11352539 86.23632812 226.43994141 C86.23616903 227.91578096 86.23047587 229.39162608 86.22045898 230.86743164 C86.21904404 231.64287827 86.21762909 232.41832489 86.21617126 233.2172699 C86.21055619 235.70356033 86.1980012 238.18976199 86.18530273 240.67602539 C86.18028967 242.35766472 86.17572643 244.03930545 86.17163086 245.72094727 C86.16058187 249.85184105 86.14330718 253.98266815 86.12280273 258.11352539 C69.28071435 263.50163817 48.67711195 265.48442219 32.12280273 258.11352539 C31.25010742 257.75129883 30.37741211 257.38907227 29.47827148 257.01586914 C15.15006657 250.52305739 5.07597512 239.49039011 -0.87719727 225.11352539 C-6.09140881 210.69270456 -5.39109041 195.99536682 -5.26782227 180.86352539 C-5.25809973 178.15112747 -5.25446373 175.4387302 -5.25067139 172.72631836 C-5.23833508 166.35892568 -5.20564309 159.99181411 -5.16527343 153.62454414 C-5.12026101 146.36437539 -5.09849532 139.10419183 -5.07849169 131.84391785 C-5.03689969 116.93363154 -4.96673381 102.02360684 -4.87719727 87.11352539 C-5.78074951 87.11876221 -6.68430176 87.12399902 -7.61523438 87.12939453 C-10.95671216 87.14640225 -14.29814418 87.15895872 -17.63964844 87.16845703 C-19.08789799 87.1734964 -20.53614243 87.18032792 -21.984375 87.18896484 C-24.06194315 87.20104786 -26.13944424 87.2067575 -28.21704102 87.21118164 C-29.46864014 87.21641846 -30.72023926 87.22165527 -32.00976562 87.22705078 C-34.87719727 87.11352539 -34.87719727 87.11352539 -35.87719727 86.11352539 C-35.9780249 83.67692094 -36.0169233 81.26927838 -36.01000977 78.83227539 C-36.01096649 78.10359253 -36.01192322 77.37490967 -36.01290894 76.62414551 C-36.01359062 75.08072829 -36.01173714 73.53730822 -36.00756836 71.99389648 C-36.00221989 69.62355139 -36.00751369 67.2533958 -36.01391602 64.88305664 C-36.01325523 63.38696247 -36.01197406 61.89086842 -36.01000977 60.39477539 C-36.012034 59.68123901 -36.01405823 58.96770264 -36.0161438 58.23254395 C-35.99214918 53.2284773 -35.99214918 53.2284773 -34.87719727 52.11352539 C-32.65864462 52.02568997 -30.4373123 52.0065793 -28.21704102 52.01586914 C-27.22034142 52.01799156 -27.22034142 52.01799156 -26.20350647 52.02015686 C-24.07385828 52.02577021 -21.94431387 52.03832485 -19.81469727 52.05102539 C-18.37394357 52.05603868 -16.93318824 52.06060188 -15.49243164 52.06469727 C-11.95398625 52.07574394 -8.41560188 52.09301747 -4.87719727 52.11352539 C-4.87941788 51.47681412 -4.88163849 50.84010284 -4.88392639 50.18409729 C-4.90597767 43.58237263 -4.9211032 36.98065835 -4.93212891 30.37890625 C-4.93717083 27.91210506 -4.94400417 25.44530687 -4.95263672 22.97851562 C-4.96470851 19.4414801 -4.97042682 15.90448394 -4.97485352 12.36743164 C-4.9800148 11.25703018 -4.98517609 10.14662872 -4.99049377 9.00257874 C-4.99060707 7.47110451 -4.99060707 7.47110451 -4.99072266 5.90869141 C-4.99294327 5.0049025 -4.99516388 4.10111359 -4.99745178 3.16993713 C-4.78001698 -0.54830561 -3.91604805 0.11466295 0 0 Z " fill="#010101" transform="translate(1660.877197265625,301.886474609375)"/>
<path d="M0 0 C1.13115234 0.41765625 1.13115234 0.41765625 2.28515625 0.84375 C17.62311007 7.11959707 30.066188 17.82677272 37 33 C44.93488223 53.80047282 45.96116575 77.48644318 37.6875 98.4375 C30.11084517 114.97043934 19.43377291 126.9125388 2.1875 133.4375 C0.46667443 133.98526279 -1.26225552 134.50854414 -3 135 C-3.721875 135.22300781 -4.44375 135.44601562 -5.1875 135.67578125 C-20.98081386 139.94345981 -37.80703751 136.40207135 -52 129 C-55.25175406 126.90271484 -58.13795675 124.59873527 -61 122 C-61.62390625 121.45601562 -62.2478125 120.91203125 -62.890625 120.3515625 C-75.06119406 109.08055724 -81.08991693 92.07228703 -82.21875 75.85791016 C-83.04648045 53.57471658 -80.67554562 33.18528055 -65 16 C-57.01184251 7.90751956 -48.05453708 1.89295511 -37 -1 C-36.26652344 -1.20496094 -35.53304688 -1.40992188 -34.77734375 -1.62109375 C-23.35830638 -4.38530146 -11.02060362 -4.09084806 0 0 Z " fill="#FDFDFD" transform="translate(1904,391)"/>
<path d="M0 0 C0.02464775 5.53588533 0.04283496 11.071739 0.05493164 16.60766602 C0.05997244 18.4924373 0.06680498 20.37720465 0.07543945 22.26196289 C0.08751617 24.96501636 0.09323068 27.66801831 0.09765625 30.37109375 C0.10281754 31.21900986 0.10797882 32.06692596 0.11329651 32.9405365 C0.11349195 34.96071068 0.06206211 36.98077934 0 39 C-0.33 39.33 -0.66 39.66 -1 40 C-2.58694341 39.93534675 -4.1711716 39.79783033 -5.75 39.625 C-6.61109375 39.53476562 -7.4721875 39.44453125 -8.359375 39.3515625 C-11 39 -11 39 -13.35791016 38.49291992 C-24.66844342 36.382777 -38.81936188 36.34036894 -49 42 C-49.928125 42.49757813 -50.85625 42.99515625 -51.8125 43.5078125 C-68.53253587 53.27631172 -76.80261345 70.77601806 -81.75 88.875 C-85.04030552 103.88259365 -85.31386321 118.89933719 -85.37890625 134.1875 C-85.3951214 136.26831817 -85.41230544 138.349129 -85.43040466 140.42993164 C-85.47562038 145.84786598 -85.51068929 151.26581061 -85.54260254 156.68383789 C-85.59496057 165.40996239 -85.6594812 174.13598086 -85.73081779 182.86196899 C-85.75366195 185.90495808 -85.76990908 188.9479332 -85.78553772 191.9909668 C-85.79893146 193.83642748 -85.81254511 195.68188659 -85.82641602 197.52734375 C-85.83033607 198.80034332 -85.83033607 198.80034332 -85.83433533 200.09906006 C-85.88633686 205.88633686 -85.88633686 205.88633686 -87 207 C-90.01808063 207.101137 -93.01280513 207.13968909 -96.03125 207.1328125 C-96.93750122 207.13376923 -97.84375244 207.13472595 -98.77746582 207.13571167 C-100.69751047 207.13639353 -102.61755741 207.13453882 -104.53759766 207.13037109 C-107.48735704 207.12502292 -110.43696414 207.13031588 -113.38671875 207.13671875 C-115.24739617 207.13605797 -117.1080735 207.13477681 -118.96875 207.1328125 C-120.30153992 207.13584885 -120.30153992 207.13584885 -121.66125488 207.13894653 C-127.88505012 207.11494988 -127.88505012 207.11494988 -129 206 C-129.10004044 203.3468276 -129.13440233 200.7196182 -129.12698364 198.06591797 C-129.12854363 197.22455732 -129.13010362 196.38319668 -129.13171089 195.51634026 C-129.13572452 192.6749386 -129.13252985 189.83358963 -129.12939453 186.9921875 C-129.13074841 184.96413135 -129.13252827 182.93607545 -129.13470459 180.90802002 C-129.1392805 175.3833888 -129.13748872 169.85877616 -129.1343255 164.33414459 C-129.13180271 158.56634977 -129.13413921 152.7985566 -129.13571167 147.03076172 C-129.1375336 137.34277052 -129.13512643 127.65478692 -129.13037109 117.96679688 C-129.12492843 106.74862241 -129.12669107 95.53046612 -129.1321975 84.3122921 C-129.13672795 74.69959545 -129.13737951 65.08690429 -129.13475883 55.47420692 C-129.13319568 49.72464322 -129.13300332 43.97508807 -129.13629532 38.2255249 C-129.13917305 32.82151179 -129.13720015 27.41752222 -129.13140106 22.01351166 C-129.13007294 20.02403553 -129.13046846 18.03455745 -129.13266373 16.04508209 C-129.13537319 13.34138818 -129.13199663 10.63777098 -129.12698364 7.93408203 C-129.12921436 7.13614164 -129.13144509 6.33820126 -129.13374341 5.51608086 C-129.11414984 0.11414984 -129.11414984 0.11414984 -128 -1 C-124.98191937 -1.101137 -121.98719487 -1.13968909 -118.96875 -1.1328125 C-118.06249878 -1.13376923 -117.15624756 -1.13472595 -116.22253418 -1.13571167 C-114.30248953 -1.13639353 -112.38244259 -1.13453882 -110.46240234 -1.13037109 C-107.51264296 -1.12502292 -104.56303586 -1.13031588 -101.61328125 -1.13671875 C-99.75260383 -1.13605797 -97.8919265 -1.13477681 -96.03125 -1.1328125 C-95.14272339 -1.13483673 -94.25419678 -1.13686096 -93.33874512 -1.13894653 C-87.11494988 -1.11494988 -87.11494988 -1.11494988 -86 0 C-85.84259395 1.70563778 -85.74906608 3.41727244 -85.68359375 5.12890625 C-85.64169922 6.16337891 -85.59980469 7.19785156 -85.55664062 8.26367188 C-85.51732422 9.35228516 -85.47800781 10.44089844 -85.4375 11.5625 C-85.39431641 12.65498047 -85.35113281 13.74746094 -85.30664062 14.87304688 C-85.20017932 17.58189564 -85.09816484 20.29083992 -85 23 C-80.04787973 22.23833341 -78.3756659 20.67851998 -75 16.9375 C-66.07526006 7.53546852 -55.26045134 1.98464668 -43 -2 C-42.2678125 -2.24621094 -41.535625 -2.49242187 -40.78125 -2.74609375 C-28.23822195 -6.24366888 -11.91439634 -4.88445552 0 0 Z " fill="#010101" transform="translate(1429,355)"/>
<path d="M0 0 C0.84477905 0.00202423 1.68955811 0.00404846 2.55993652 0.00613403 C3.42179565 0.00517731 4.28365479 0.00422058 5.17163086 0.00323486 C6.99751864 0.00255304 8.82340884 0.00440749 10.64929199 0.00857544 C13.45419731 0.01392367 16.25894248 0.00863054 19.06384277 0.00222778 C20.83337438 0.00288856 22.60290588 0.00416973 24.37243652 0.00613403 C25.21721558 0.0041098 26.06199463 0.00208557 26.93237305 0 C32.85123621 0.02399622 32.85123621 0.02399622 33.96618652 1.13894653 C34.06609988 3.59035463 34.10060492 6.01364814 34.09317017 8.46560669 C34.09473016 9.2416305 34.09629015 10.0176543 34.09789741 10.81719398 C34.10191048 13.43748455 34.09871659 16.05771796 34.09558105 18.67800903 C34.09693496 20.54843174 34.09871483 22.41885419 34.10089111 24.28927612 C34.10546673 29.3841695 34.10367536 34.47904272 34.10051203 39.57393646 C34.09798908 44.89329586 34.10032578 50.21265348 34.10189819 55.53201294 C34.10372008 64.46674918 34.10131307 73.40147717 34.09655762 82.33621216 C34.09111496 92.68188196 34.0928776 103.02753205 34.09838402 113.37320137 C34.1029146 122.23855827 34.10356597 131.10390921 34.10094535 139.96926689 C34.09938228 145.27170001 34.09918965 150.57412386 34.10248184 155.8765564 C34.10535976 160.86033302 34.10338633 165.84408412 34.09758759 170.82785797 C34.09625956 172.66252856 34.09665482 174.49720128 34.09885025 176.33187103 C34.1015601 178.82537233 34.09818268 181.31879046 34.09317017 183.81228638 C34.09540089 184.54797159 34.09763161 185.28365681 34.09992993 186.04163551 C34.08033638 191.02479668 34.08033638 191.02479668 32.96618652 192.13894653 C30.17794915 192.25239803 27.41541308 192.30312916 24.62634277 192.30691528 C23.78905136 192.31024368 22.95175995 192.31357208 22.08909607 192.31700134 C20.31448925 192.3220741 18.53987285 192.32440956 16.76525879 192.32424927 C14.04366396 192.32643451 11.3224751 192.34458286 8.60095215 192.36355591 C6.88025042 192.36648995 5.15954675 192.36847467 3.43884277 192.36941528 C2.62109879 192.3766008 1.8033548 192.38378632 0.96083069 192.39118958 C-4.80499144 192.36776857 -4.80499144 192.36776857 -7.03381348 190.13894653 C-7.22904845 187.63271693 -7.29874439 185.23719223 -7.28105164 182.72999573 C-7.28346605 181.95720105 -7.28588047 181.18440637 -7.28836805 180.38819367 C-7.29402802 177.78476305 -7.28532474 175.18157531 -7.2767334 172.57815552 C-7.2778057 170.71743707 -7.27974361 168.85671894 -7.28248596 166.9960022 C-7.28734537 161.93213261 -7.27966525 156.86835074 -7.26953292 151.80449176 C-7.26077143 146.51583624 -7.26250949 141.22718363 -7.26289368 135.93852234 C-7.26195625 127.05682907 -7.25326122 118.17516991 -7.23962402 109.29348755 C-7.22389284 99.00971094 -7.21862604 88.72597169 -7.21935958 78.44218391 C-7.21996892 68.56756598 -7.21487235 58.69296028 -7.20656776 48.81834602 C-7.20302778 44.60742154 -7.2012035 40.39650138 -7.20067406 36.18557549 C-7.19967299 31.23214973 -7.19359582 26.2787556 -7.18350792 21.32534027 C-7.18057543 19.50195827 -7.17935905 17.67857263 -7.17993546 15.85518837 C-7.18042258 13.37706265 -7.17480588 10.89902694 -7.16752625 8.4209137 C-7.16907485 7.68980155 -7.17062345 6.9586894 -7.17221898 6.20542234 C-7.14067579 -0.24242204 -6.35363166 0.02575886 0 0 Z " fill="#020202" transform="translate(1230.0338134765625,369.8610534667969)"/>
<path d="M0 0 C1.31291016 0.89525391 1.31291016 0.89525391 2.65234375 1.80859375 C3.33167969 2.27136719 4.01101562 2.73414063 4.7109375 3.2109375 C13.6929938 10.11251751 18.41183159 20.9678548 20.65234375 31.80859375 C20.8125 35.1328125 20.8125 35.1328125 20.65234375 37.80859375 C19.65234375 38.80859375 19.65234375 38.80859375 17.81138515 38.93164158 C16.59600111 38.93025889 16.59600111 38.93025889 15.35606384 38.92884827 C14.42913223 38.93022293 13.50220062 38.9315976 12.54718018 38.93301392 C11.52219421 38.92941864 10.49720825 38.92582336 9.44116211 38.92211914 C7.83160393 38.92233818 7.83160393 38.92233818 6.18952942 38.92256165 C2.62372859 38.92186199 -0.94202074 38.91406713 -4.5078125 38.90625 C-6.97261018 38.90438601 -9.43740824 38.90296202 -11.90220642 38.90196228 C-18.4041953 38.89813562 -24.906162 38.88830407 -31.40814209 38.8772583 C-38.03706442 38.86651123 -44.66599318 38.86246534 -51.29492188 38.85742188 C-64.31250949 38.84668194 -77.33008169 38.82979472 -90.34765625 38.80859375 C-90.05276881 37.39155065 -89.7522585 35.97567709 -89.44946289 34.56030273 C-89.28273575 33.77171371 -89.11600861 32.98312469 -88.94422913 32.17063904 C-88.01756273 28.50163551 -86.49738638 25.23247844 -84.78515625 21.87109375 C-84.43364502 21.18088135 -84.08213379 20.49066895 -83.7199707 19.77954102 C-76.63652925 6.41429179 -65.97986974 -1.6473575 -51.7578125 -6.46484375 C-34.99521711 -11.51807348 -14.73313585 -9.31227115 0 0 Z " fill="#FDFDFD" transform="translate(2146.34765625,394.19140625)"/>
<path d="M0 0 C1.29997925 0.00303635 1.29997925 0.00303635 2.6262207 0.00613403 C3.51027588 0.00517731 4.39433105 0.00422058 5.30517578 0.00323486 C7.178142 0.00255302 9.05111056 0.0044076 10.92407227 0.00857544 C13.80140458 0.01392364 16.67858078 0.0086306 19.5559082 0.00222778 C21.37101272 0.00288856 23.18611713 0.00416972 25.0012207 0.00613403 C25.86787354 0.0041098 26.73452637 0.00208557 27.62744141 0 C33.69877061 0.02399644 33.69877061 0.02399644 34.8137207 1.13894653 C34.91471558 3.86618932 34.95342599 6.56757176 34.9465332 9.29519653 C34.94748993 10.11266357 34.94844666 10.93013062 34.94943237 11.77236938 C34.95011416 13.50410031 34.94826 15.23583377 34.9440918 16.96755981 C34.93874349 19.62761135 34.94403682 22.28749403 34.95043945 24.94754028 C34.94977867 26.62592607 34.94849751 28.30431176 34.9465332 29.98269653 C34.94855743 30.78372803 34.95058167 31.58475952 34.95266724 32.4100647 C34.92867149 38.02399575 34.92867149 38.02399575 33.8137207 39.13894653 C30.868365 39.24005006 27.94694511 39.27863933 25.0012207 39.27175903 C23.67513794 39.27319412 23.67513794 39.27319412 22.32226562 39.2746582 C20.44929941 39.27534005 18.57633084 39.27348546 16.70336914 39.26931763 C13.82603683 39.26396943 10.94886062 39.26926247 8.0715332 39.27566528 C6.25642869 39.2750045 4.44132427 39.27372334 2.6262207 39.27175903 C1.75956787 39.27378326 0.89291504 39.2758075 0 39.27789307 C-6.0713292 39.25389663 -6.0713292 39.25389663 -7.1862793 38.13894653 C-7.28727417 35.41170375 -7.32598459 32.7103213 -7.3190918 29.98269653 C-7.32004852 29.16522949 -7.32100525 28.34776245 -7.32199097 27.50552368 C-7.32267275 25.77379276 -7.32081859 24.04205929 -7.31665039 22.31033325 C-7.31130209 19.65028171 -7.31659542 16.99039903 -7.32299805 14.33035278 C-7.32233727 12.65196699 -7.3210561 10.97358131 -7.3190918 9.29519653 C-7.32111603 8.49416504 -7.32314026 7.69313354 -7.32522583 6.86782837 C-7.29564917 -0.05178818 -6.87762587 0.02718326 0 0 Z " fill="#020202" transform="translate(1230.186279296875,301.8610534667969)"/>
</svg>
